# xmcd
#
# Track frame offsets:
#	150
#	23973
#	47392
#	65012
#	93319
#	116013
#	133259
#	152151
#
# Disc length: 2521 seconds
#
# Revision: 0
# Processed by: cddbd v1.4PL0 Copyright (c) Steve Scherf et al.
# Submitted via: EasyCDDAExtractor 4.5.0.1
#
DISCID=6909d708
DTITLE=D¯EM - Czerwony Jak Ceg³a
DYEAR=1900
DGENRE=blues
TTITLE0=Czerwony Jak Ceg³a
TTITLE1=Whisky
TTITLE2=Nieudany Skok
TTITLE3=Ballada O Dziwnym Malarzu
TTITLE4=Jesiony
TTITLE5=Powia³ Boczny Wiatr
TTITLE6=Kim Jestem - Jestem Sobie
TTITLE7=Oh, S³odka
EXTD=
EXTT0=
EXTT1=
EXTT2=
EXTT3=
EXTT4=
EXTT5=
EXTT6=
EXTT7=
PLAYORDER=
